<?xml version="1.0" encoding="UTF-8"?>
<svg version="1.1" xmlns="http://www.w3.org/2000/svg" width="600" height="500">
<path d="M0 0 C198 0 396 0 600 0 C600 165 600 330 600 500 C402 500 204 500 0 500 C0 335 0 170 0 0 Z " fill="#F8F9FB" transform="translate(0,0)"/>
<path d="M0 0 C10.49326768 6.83164277 18.04566498 17.20007363 21.1875 29.43359375 C23.83430329 46.09427518 18.96540016 58.42157977 9.75 71.9375 C1.37528169 80.8048488 -10.45434222 86.58779191 -22.62890625 87.40625 C-36.26063677 87.75917506 -48.4537748 84.00720912 -58.625 74.5625 C-67.57742838 64.94829046 -72.98220549 53.07085135 -72.875 39.9375 C-72.86927979 39.11266113 -72.86355957 38.28782227 -72.85766602 37.43798828 C-72.52076644 25.78375856 -68.13112416 16.75120325 -60.375 8.1875 C-59.85292969 7.56230469 -59.33085937 6.93710938 -58.79296875 6.29296875 C-43.73068426 -10.52841466 -18.49865425 -10.37593689 0 0 Z " fill="#242124" transform="translate(325.375,150.8125)"/>
<path d="M0 0 C10.49326768 6.83164277 18.04566498 17.20007363 21.1875 29.43359375 C23.83430329 46.09427518 18.96540016 58.42157977 9.75 71.9375 C1.37528169 80.8048488 -10.45434222 86.58779191 -22.62890625 87.40625 C-36.26063677 87.75917506 -48.4537748 84.00720912 -58.625 74.5625 C-67.57742838 64.94829046 -72.98220549 53.07085135 -72.875 39.9375 C-72.86927979 39.11266113 -72.86355957 38.28782227 -72.85766602 37.43798828 C-72.52076644 25.78375856 -68.13112416 16.75120325 -60.375 8.1875 C-59.85292969 7.56230469 -59.33085937 6.93710938 -58.79296875 6.29296875 C-43.73068426 -10.52841466 -18.49865425 -10.37593689 0 0 Z M-54.625 15.3125 C-61.62810133 23.71622159 -64.33146388 32.46766903 -63.91796875 43.375 C-62.43963227 53.7552619 -57.55284116 63.52407387 -49.375 70.1875 C-39.76731401 77.0156837 -30.29927395 78.92741944 -18.64208984 77.59667969 C-9.09504659 75.87356484 -0.02001829 70.04143849 5.625 62.1875 C11.5241657 51.51564245 13.53546912 40.28960766 11.01171875 28.265625 C7.12563003 17.51468353 -0.33205673 10.24313131 -10.375 5.1875 C-11.06851563 4.81882813 -11.76203125 4.45015625 -12.4765625 4.0703125 C-27.21730859 -2.78443774 -44.23633514 4.57365542 -54.625 15.3125 Z " fill="#272528" transform="translate(325.375,150.8125)"/>
<path d="M0 0 C6.66535346 5.86476631 11.41338695 14.7918889 12.2109375 23.57421875 C12.31907475 34.61503201 11.00183549 43.91554968 3.875 52.875 C3.42898438 53.43703125 2.98296875 53.9990625 2.5234375 54.578125 C-3.57799415 61.49107711 -11.57832459 65.51812982 -20.69921875 66.4921875 C-32.89867066 67.23558967 -41.97501245 64.70091578 -51.55078125 56.8984375 C-59.19522122 49.2108086 -63.40432037 39.01711672 -63.8125 28.25 C-63.28465333 17.17669486 -59.25001785 8.98901346 -51.5859375 1.0703125 C-35.63105354 -13.162457 -16.86445057 -11.46782639 0 0 Z M-48.125 10.875 C-53.73309596 18.61643506 -53.86154268 26.5761487 -53.125 35.875 C-50.84155992 44.4751303 -45.50445815 50.37839967 -37.9921875 54.89453125 C-31.69330388 58.20210403 -23.75947605 57.75181735 -17 56.12109375 C-8.33486258 53.11890619 -3.27888454 49.06616881 0.875 40.875 C3.65803966 33.85437034 4.31956131 25.66290167 2.1171875 18.36328125 C1.16710904 16.3995364 0.12381483 14.66089253 -1.125 12.875 C-1.66125 12.00875 -2.1975 11.1425 -2.75 10.25 C-8.96768655 4.03231345 -16.08826903 0.73817921 -24.8125 0.625 C-35.04566579 0.74068841 -41.11918972 3.30996761 -48.125 10.875 Z " fill="#F3F1F4" transform="translate(325.125,162.125)"/>
<path d="M0 0 C32.34 0 64.68 0 98 0 C98 2.97 98 5.94 98 9 C68.63 9 39.26 9 9 9 C9 30.78 9 52.56 9 75 C6.03 75 3.06 75 0 75 C0 50.25 0 25.5 0 0 Z " fill="#231F22" transform="translate(201,116)"/>
<path d="M0 0 C3.63743233 2.02856803 4.507592 3.1056187 6.25 6.8125 C6.63818359 10.02294922 6.63818359 10.02294922 6.6484375 13.6171875 C6.65423828 15.57591797 6.65423828 15.57591797 6.66015625 17.57421875 C6.65387207 18.2501709 6.64758789 18.92612305 6.64111328 19.62255859 C6.62509882 21.6748359 6.64095827 23.7251285 6.66015625 25.77734375 C6.62338757 38.21741408 6.62338757 38.21741408 3.25 43.8125 C-0.20213202 46.87010265 -3.36760781 47.29497634 -7.828125 47.09375 C-12.13999252 46.462745 -14.22332626 44.47850671 -16.85961914 41.14477539 C-19.04564015 37.2913593 -19.25269253 35.02075984 -19.24609375 30.62109375 C-19.24754898 29.95336441 -19.24900421 29.28563507 -19.25050354 28.59767151 C-19.24885317 27.19503385 -19.2373889 25.79237644 -19.21655273 24.38989258 C-19.18752688 22.25198004 -19.19597308 20.11654186 -19.20898438 17.97851562 C-19.15623268 6.39795198 -19.15623268 6.39795198 -15.75 1.8125 C-10.66147229 -2.28659177 -6.03205547 -1.9101509 0 0 Z " fill="#2B2B2D" transform="translate(272.75,304.1875)"/>
<path d="M0 0 C4.02889792 2.08905818 6.41476542 3.74463452 8 8 C8.37705665 12.39932942 8.3292766 16.80345433 8.31567383 21.21679688 C8.3125203 23.36119729 8.33596574 25.5042081 8.36132812 27.6484375 C8.36360212 29.02343577 8.36430415 30.39843773 8.36328125 31.7734375 C8.36626221 33.01528809 8.36924316 34.25713867 8.37231445 35.53662109 C7.85917069 40.31003583 6.48387956 43.72810324 2.8125 46.875 C-0.91178565 48.36471426 -4.04083927 48.59427565 -8 48 C-11.6980849 46.35640671 -13.90434646 44.45782834 -16 41 C-17.85375469 35.31227079 -17.22610572 29.03286039 -17.25 23.125 C-17.270625 21.85785156 -17.29125 20.59070313 -17.3125 19.28515625 C-17.31765625 18.05925781 -17.3228125 16.83335937 -17.328125 15.5703125 C-17.3374707 14.45414551 -17.34681641 13.33797852 -17.35644531 12.18798828 C-16.94613737 8.51826147 -15.91313533 6.14300804 -14 3 C-9.57740996 -0.08552794 -5.25936606 -0.95339106 0 0 Z " fill="#2C2A2D" transform="translate(216,303)"/>
<path d="M0 0 C15 0 15 0 21 3 C23.96595069 7.44892603 23.52211451 11.7788549 23 17 C21.5625 19.875 21.5625 19.875 20 22 C18.29011926 26.84466209 19.82235555 30.49463811 21.4375 35.125 C24 42.66976127 24 42.66976127 24 46 C22.02 46 20.04 46 18 46 C12 28.76595745 12 28.76595745 12 24 C10.35 24 8.7 24 7 24 C7 31.26 7 38.52 7 46 C4.69 46 2.38 46 0 46 C0 30.82 0 15.64 0 0 Z " fill="#2A2B2D" transform="translate(317,304)"/>
<path d="M0 0 C2.97 0 5.94 0 9 0 C9 13.53 9 27.06 9 41 C-8.82 41 -26.64 41 -45 41 C-45 38.03 -45 35.06 -45 32 C-30.15 32 -15.3 32 0 32 C0 21.44 0 10.88 0 0 Z " fill="#221F23" transform="translate(389,225)"/>
<path d="M0 0 C16 0 16 0 21 3 C23.97425326 7.46137989 23.49867492 11.76774934 23 17 C21.45765699 20.70162323 19.60997018 23.19501491 16 25 C13.03 25 10.06 25 7 25 C7 31.93 7 38.86 7 46 C4.69 46 2.38 46 0 46 C0 30.82 0 15.64 0 0 Z " fill="#2C2D2F" transform="translate(376,304)"/>
<path d="M0 0 C16 0 16 0 21 3 C23.91891504 7.24168621 23.50579314 12.05446704 23 17 C21.61898801 20.60597575 20.4686267 21.6911324 17.25 23.8125 C14 25 14 25 7 25 C7 31.93 7 38.86 7 46 C4.69 46 2.38 46 0 46 C0 30.82 0 15.64 0 0 Z " fill="#2D2A2D" transform="translate(139,304)"/>
<path d="M0 0 C3.15576082 2.07993327 4.34779653 3.30699132 5.75 6.8125 C5.9776512 9.53419654 5.88936164 12.07172103 5.75 14.8125 C3.77 14.8125 1.79 14.8125 -0.25 14.8125 C-0.91 11.8425 -1.57 8.8725 -2.25 5.8125 C-6.25254456 5.72068866 -6.25254456 5.72068866 -10.25 5.8125 C-12.12485504 7.68735504 -11.38052659 10.86934284 -11.3828125 13.3671875 C-11.38376923 14.02453888 -11.38472595 14.68189026 -11.38571167 15.35916138 C-11.38639345 16.752951 -11.3845393 18.14674378 -11.38037109 19.54052734 C-11.37503972 21.67162253 -11.38030724 23.80250531 -11.38671875 25.93359375 C-11.38605763 27.2864588 -11.38477578 28.63932371 -11.3828125 29.9921875 C-11.38112061 31.84432861 -11.38112061 31.84432861 -11.37939453 33.73388672 C-11.39026813 36.85188011 -11.39026813 36.85188011 -10.25 39.8125 C-7.61 39.8125 -4.97 39.8125 -2.25 39.8125 C-1.59 35.8525 -0.93 31.8925 -0.25 27.8125 C-2.23 27.8125 -4.21 27.8125 -6.25 27.8125 C-6.25 26.1625 -6.25 24.5125 -6.25 22.8125 C-2.29 22.8125 1.67 22.8125 5.75 22.8125 C5.75 30.4025 5.75 37.9925 5.75 45.8125 C4.43 45.8125 3.11 45.8125 1.75 45.8125 C1.42 44.8225 1.09 43.8325 0.75 42.8125 C0.069375 43.4725 -0.61125 44.1325 -1.3125 44.8125 C-5.03198762 47.3449171 -6.826184 47.51099726 -11.25 46.8125 C-15.49790058 44.16758077 -17.62697755 41.94342381 -18.87719727 37.0847168 C-19.70937961 32.01260086 -19.57681069 26.8760875 -19.5625 21.75 C-19.57861328 20.59177734 -19.59472656 19.43355469 -19.61132812 18.24023438 C-19.61527968 11.36057775 -19.28251436 6.47678819 -14.75 1 C-10.41770522 -2.42973337 -4.88518213 -1.7849704 0 0 Z " fill="#2F3032" transform="translate(304.25,304.1875)"/>
<path d="M0 0 C2.31 0 4.62 0 7 0 C7 6.6 7 13.2 7 20 C10.96 20 14.92 20 19 20 C19 13.4 19 6.8 19 0 C20.98 0 22.96 0 25 0 C25 15.18 25 30.36 25 46 C23.02 46 21.04 46 19 46 C19 38.74 19 31.48 19 24 C15.04 24 11.08 24 7 24 C7 31.26 7 38.52 7 46 C4.69 46 2.38 46 0 46 C0 30.82 0 15.64 0 0 Z " fill="#262729" transform="translate(404,304)"/>
<path d="M0 0 C2.31 0 4.62 0 7 0 C7 6.6 7 13.2 7 20 C10.96 20 14.92 20 19 20 C19 13.4 19 6.8 19 0 C20.98 0 22.96 0 25 0 C25 15.18 25 30.36 25 46 C23.02 46 21.04 46 19 46 C19 38.74 19 31.48 19 24 C15.04 24 11.08 24 7 24 C7 31.26 7 38.52 7 46 C4.69 46 2.38 46 0 46 C0 30.82 0 15.64 0 0 Z " fill="#282629" transform="translate(167,304)"/>
<path d="M0 0 C2.31 0 4.62 0 7 0 C7.20157715 0.95253662 7.4031543 1.90507324 7.61083984 2.88647461 C8.36705745 6.45932508 9.12387331 10.03204861 9.88085938 13.60473633 C10.20686605 15.14376488 10.53271581 16.68282667 10.85839844 18.22192383 C11.32965346 20.44882064 11.80152191 22.67558685 12.2734375 24.90234375 C12.42520447 25.62046234 12.57697144 26.33858093 12.7333374 27.07846069 C13.52937749 30.83322373 14.35764358 34.57790939 15.2265625 38.31640625 C16 42 16 42 16 46 C14.02 46 12.04 46 10 46 C8 38.375 8 38.375 8 35 C4.7 35 1.4 35 -2 35 C-2.33 38.63 -2.66 42.26 -3 46 C-5.31 46 -7.62 46 -10 46 C-7.62171396 34.01314475 -5.24051643 22.0266302 -2.75 10.0625 C-2.58725586 9.27125732 -2.42451172 8.48001465 -2.25683594 7.66479492 C-1.1175698 2.23513961 -1.1175698 2.23513961 0 0 Z " fill="#2B2C2E" transform="translate(355,304)"/>
<path d="M0 0 C2.31 0 4.62 0 7 0 C7.26554687 0.86882812 7.53109375 1.73765625 7.8046875 2.6328125 C8.15789062 3.78523438 8.51109375 4.93765625 8.875 6.125 C9.39707031 7.83042969 9.39707031 7.83042969 9.9296875 9.5703125 C10.91496533 12.72751664 11.94272536 15.86627606 13 19 C13.176521 18.45996338 13.35304199 17.91992676 13.53491211 17.36352539 C14.33266495 14.92881836 15.13501879 12.49565242 15.9375 10.0625 C16.21529297 9.21236328 16.49308594 8.36222656 16.77929688 7.48632812 C17.04677734 6.67744141 17.31425781 5.86855469 17.58984375 5.03515625 C17.83597412 4.2862915 18.08210449 3.53742676 18.33569336 2.76586914 C19 1 19 1 20 0 C21.99958364 -0.04080783 24.00045254 -0.04254356 26 0 C24.71297918 5.12550397 23.33098277 10.18057466 21.5 15.140625 C17.68820858 25.58041649 16.02814292 34.88354747 16 46 C14.02 46 12.04 46 10 46 C9.99742187 44.90945313 9.99484375 43.81890625 9.9921875 42.6953125 C9.77557673 31.57097992 7.61654085 22.33045662 3.71484375 11.95019531 C2.27797079 8.03020174 1.14910848 4.01179979 0 0 Z " fill="#28282A" transform="translate(434,304)"/>
<path d="M0 0 C0.70125 -0.01675781 1.4025 -0.03351563 2.125 -0.05078125 C2.74375 0.06910156 3.3625 0.18898438 4 0.3125 C6.39241842 3.90112763 6.25743301 5.54612734 6.265625 9.80859375 C6.26820313 11.08927734 6.27078125 12.36996094 6.2734375 13.68945312 C6.26924805 14.355979 6.26505859 15.02250488 6.26074219 15.70922852 C6.25005579 17.73940045 6.26063679 19.76868398 6.2734375 21.79882812 C6.27085937 23.08080078 6.26828125 24.36277344 6.265625 25.68359375 C6.26336914 26.85849365 6.26111328 28.03339355 6.25878906 29.24389648 C6.0116531 32.17432278 5.53199345 33.84221761 4 36.3125 C2.72125 36.374375 1.4425 36.43625 0.125 36.5 C-0.95394531 36.55220703 -0.95394531 36.55220703 -2.0546875 36.60546875 C-2.69664062 36.50878906 -3.33859375 36.41210938 -4 36.3125 C-6.46466096 32.61550856 -6.25779399 30.71829069 -6.265625 26.30859375 C-6.26753845 25.62950455 -6.2694519 24.95041534 -6.27142334 24.25074768 C-6.27278247 22.81763335 -6.26910496 21.38450659 -6.26074219 19.95141602 C-6.25002167 17.75444015 -6.26065453 15.55827886 -6.2734375 13.36132812 C-6.27211618 11.96874819 -6.26955436 10.57616877 -6.265625 9.18359375 C-6.26336914 7.91443115 -6.26111328 6.64526855 -6.25878906 5.33764648 C-5.86887874 0.77974196 -4.25086699 0.02344228 0 0 Z " fill="#F5F5F7" transform="translate(212,308.6875)"/>
<path d="M0 0 C0.70125 -0.01675781 1.4025 -0.03351563 2.125 -0.05078125 C2.74375 0.06910156 3.3625 0.18898438 4 0.3125 C7.36323236 5.35734854 6.32732437 11.26368357 6.3125 17.1875 C6.32861328 18.46753906 6.34472656 19.74757813 6.36132812 21.06640625 C6.36197266 22.30003906 6.36261719 23.53367187 6.36328125 24.8046875 C6.36626221 25.93245605 6.36924316 27.06022461 6.37231445 28.22216797 C5.95402809 31.69408196 5.18235158 33.59012375 3 36.3125 C-0.5625 36.75 -0.5625 36.75 -4 36.3125 C-6.90441659 33.40808341 -6.25867736 31.24492155 -6.265625 27.1875 C-6.26753845 26.4847998 -6.2694519 25.78209961 -6.27142334 25.05810547 C-6.27278475 23.57193646 -6.26909132 22.08575555 -6.26074219 20.59960938 C-6.25004154 18.32134354 -6.26063839 16.04386623 -6.2734375 13.765625 C-6.2721159 12.32291492 -6.26955349 10.88020534 -6.265625 9.4375 C-6.26336914 8.12007813 -6.26111328 6.80265625 -6.25878906 5.4453125 C-5.87703608 0.82394052 -4.32884458 0.0238723 0 0 Z " fill="#F5F5F6" transform="translate(267,308.6875)"/>
<path d="M0 0 C7.92 0 15.84 0 24 0 C24 1.65 24 3.3 24 5 C21.36 5 18.72 5 16 5 C16 18.53 16 32.06 16 46 C13.69 46 11.38 46 9 46 C9 32.47 9 18.94 9 5 C6.03 5 3.06 5 0 5 C0 3.35 0 1.7 0 0 Z " fill="#333033" transform="translate(227,304)"/>
<path d="M0 0 C5.34818156 2.99967868 9.49311815 7.75607841 11.8125 13.4375 C12.44400362 19.06531165 12.02474907 24.18340845 9.8125 29.4375 C9.4825 29.4375 9.1525 29.4375 8.8125 29.4375 C8.71453125 28.49648437 8.6165625 27.55546875 8.515625 26.5859375 C7.48456455 17.99969274 6.78849636 13.10765048 0.375 7.1875 C-4.13998987 4.10409228 -8.07163837 3.17041395 -13.5 2.8125 C-14.56863281 2.73773438 -15.63726562 2.66296875 -16.73828125 2.5859375 C-17.54652344 2.53695312 -18.35476563 2.48796875 -19.1875 2.4375 C-14.19726542 -3.02799501 -6.49156733 -2.9212053 0 0 Z " fill="#E5E3E6" transform="translate(309.1875,170.5625)"/>
<path d="M0 0 C3.96 0 7.92 0 12 0 C12 7.59 12 15.18 12 23 C10.68 23 9.36 23 8 23 C6.67405641 17.03325384 6.9115413 11.07416385 7 5 C4.69 5 2.38 5 0 5 C0 3.35 0 1.7 0 0 Z " fill="#252628" transform="translate(298,327)"/>
<path d="M0 0 C6.0546875 -0.1953125 6.0546875 -0.1953125 8 0 C10.39286884 2.39286884 10.32050616 3.09447094 10.375 6.375 C10.29222147 9.58784151 10.13595223 10.78561379 8.375 13.5625 C6 15 6 15 0 15 C0 10.05 0 5.1 0 0 Z " fill="#F6F7F9" transform="translate(383,309)"/>
<path d="M0 0 C6.0546875 -0.1953125 6.0546875 -0.1953125 8 0 C10.39286884 2.39286884 10.32050616 3.09447094 10.375 6.375 C10.29222147 9.58784151 10.13595223 10.78561379 8.375 13.5625 C6 15 6 15 0 15 C0 10.05 0 5.1 0 0 Z " fill="#F5F6F8" transform="translate(146,309)"/>
<path d="M0 0 C1.27875 -0.061875 2.5575 -0.12375 3.875 -0.1875 C4.95394531 -0.23970703 4.95394531 -0.23970703 6.0546875 -0.29296875 C6.69664062 -0.19628906 7.33859375 -0.09960938 8 0 C10.4567061 3.68505915 10.68887481 6.72036526 10 11 C8.375 13.5 8.375 13.5 6 15 C4.02 15 2.04 15 0 15 C0 10.05 0 5.1 0 0 Z " fill="#F2F3F5" transform="translate(324,309)"/>
<path d="M0 0 C6.0546875 -0.1953125 6.0546875 -0.1953125 8 0 C10 2 10 2 10.25 4.4375 C10 7 10 7 8 10 C8.99 11.32 9.98 12.64 11 14 C8.53199953 12.84826645 6.95216435 11.95216435 5 10 C2.93125966 9.3574765 2.93125966 9.3574765 1 9 C1 10.65 1 12.3 1 14 C0.67 14 0.34 14 0 14 C0 9.38 0 4.76 0 0 Z " fill="#525355" transform="translate(380,370)"/>
<path d="M0 0 C0.33 0 0.66 0 1 0 C1.50509208 2.24886238 2.00389179 4.49913869 2.5 6.75 C2.7784375 8.00296875 3.056875 9.2559375 3.34375 10.546875 C4 14 4 14 4 18 C1.69 18 -0.62 18 -3 18 C-3.2549878 12.1352807 -2.4918552 6.68429498 -1 1 C-0.67 0.67 -0.34 0.34 0 0 Z " fill="#E6E7E9" transform="translate(358,316)"/>
<path d="M0 0 C3.3 0 6.6 0 10 0 C10 0.66 10 1.32 10 2 C7.36 2 4.72 2 2 2 C2 3.32 2 4.64 2 6 C4.64 6 7.28 6 10 6 C10 6.66 10 7.32 10 8 C7.36 8 4.72 8 2 8 C2 9.32 2 10.64 2 12 C4.64 12 7.28 12 10 12 C10 12.66 10 13.32 10 14 C6.7 14 3.4 14 0 14 C0 9.38 0 4.76 0 0 Z " fill="#7B7C7E" transform="translate(304,370)"/>
<path d="M0 0 C2.55263088 2.274694 3.84144815 4.43202693 5.1875 7.5625 C5.53167969 8.34753906 5.87585938 9.13257813 6.23046875 9.94140625 C7 12 7 12 7 14 C6.34 14 5.68 14 5 14 C5 13.01 5 12.02 5 11 C2.03 11 -0.94 11 -4 11 C-4.33 11.99 -4.66 12.98 -5 14 C-5.33 13.34 -5.66 12.68 -6 12 C-4.78515625 9.1796875 -4.78515625 9.1796875 -3.0625 5.875 C-2.49660156 4.77929688 -1.93070313 3.68359375 -1.34765625 2.5546875 C-0.90292969 1.71164062 -0.45820313 0.86859375 0 0 Z " fill="#5F6062" transform="translate(213,370)"/>
<path d="M0 0 C3.3 0 6.6 0 10 0 C10 0.66 10 1.32 10 2 C7.03 2 4.06 2 1 2 C1 3.32 1 4.64 1 6 C3.64 6 6.28 6 9 6 C9 6.66 9 7.32 9 8 C6.69 8 4.38 8 2 8 C2 9.32 2 10.64 2 12 C4.64 12 7.28 12 10 12 C10 12.66 10 13.32 10 14 C6.7 14 3.4 14 0 14 C0 9.38 0 4.76 0 0 Z " fill="#767779" transform="translate(401,370)"/>
<path d="M0 0 C0.66 0.33 1.32 0.66 2 1 C1.67 1.66 1.34 2.32 1 3 C-0.1446875 2.9071875 -0.1446875 2.9071875 -1.3125 2.8125 C-3.98967633 2.78550321 -3.98967633 2.78550321 -5.875 4.1875 C-7.27887164 6.02996899 -7.27887164 6.02996899 -6.6875 8.6875 C-6.460625 9.450625 -6.23375 10.21375 -6 11 C-2.52852158 11.74957157 -2.52852158 11.74957157 1 12 C1 10.68 1 9.36 1 8 C-0.32 7.67 -1.64 7.34 -3 7 C-1.02 7 0.96 7 3 7 C3.125 9.375 3.125 9.375 3 12 C1 14 1 14 -2.4375 14.3125 C-6 14 -6 14 -7.9375 13 C-9.65701652 9.76326302 -9.53653931 6.57692871 -9 3 C-6.87757591 -0.77319839 -4.02174082 -0.34227581 0 0 Z " fill="#6D6E70" transform="translate(238,370)"/>
<path d="M0 0 C3.48872415 1.16290805 4.09976864 2.13967609 6.1875 5.0625 C6.71730469 5.79597656 7.24710937 6.52945312 7.79296875 7.28515625 C8.19128906 7.85105469 8.58960938 8.41695313 9 9 C9.33 6.03 9.66 3.06 10 0 C10.33 0 10.66 0 11 0 C11 4.62 11 9.24 11 14 C8.06799526 11.14723863 5.35684596 8.34920216 3 5 C2.67 7.97 2.34 10.94 2 14 C1.34 14 0.68 14 0 14 C0 9.38 0 4.76 0 0 Z " fill="#5C5D5F" transform="translate(282,370)"/>
<path d="M0 0 C0.66 0 1.32 0 2 0 C2 1.98 2 3.96 2 6 C4.64 6 7.28 6 10 6 C10 4.02 10 2.04 10 0 C10.33 0 10.66 0 11 0 C11 4.62 11 9.24 11 14 C10.67 14 10.34 14 10 14 C10 12.02 10 10.04 10 8 C7.36 8 4.72 8 2 8 C2 9.98 2 11.96 2 14 C1.34 14 0.68 14 0 14 C0 9.38 0 4.76 0 0 Z " fill="#727375" transform="translate(337,370)"/>
<path d="M0 0 C3.63 0 7.26 0 11 0 C11 0.66 11 1.32 11 2 C9.35 2 7.7 2 6 2 C6 5.96 6 9.92 6 14 C5.34 14 4.68 14 4 14 C4 10.04 4 6.08 4 2 C2.68 2 1.36 2 0 2 C0 1.34 0 0.68 0 0 Z " fill="#797A7C" transform="translate(189,370)"/>
<path d="M0 0 C2.31 0 4.62 0 7 0 C7.625 1.875 7.625 1.875 8 4 C6 6 6 6 2.875 6.125 C1.451875 6.063125 1.451875 6.063125 0 6 C0 4.02 0 2.04 0 0 Z " fill="#E8E9EB" transform="translate(381,372)"/>
<path d="M0 0 C0.66 0 1.32 0 2 0 C2 3.96 2 7.92 2 12 C4.31 12 6.62 12 9 12 C9 12.66 9 13.32 9 14 C6.03 14 3.06 14 0 14 C0 9.38 0 4.76 0 0 Z " fill="#7B7C7E" transform="translate(251,370)"/>
<path d="M0 0 C1.134375 0.020625 2.26875 0.04125 3.4375 0.0625 C3.4375 1.3825 3.4375 2.7025 3.4375 4.0625 C1.4575 4.3925 -0.5225 4.7225 -2.5625 5.0625 C-3.2225 3.7425 -3.8825 2.4225 -4.5625 1.0625 C-3.5625 0.0625 -3.5625 0.0625 0 0 Z " fill="#F2F3F5" transform="translate(235.5625,377.9375)"/>
<path d="M0 0 C3 3.625 3 3.625 3 7 C1.02 7 -0.96 7 -3 7 C-2.01 4.69 -1.02 2.38 0 0 Z " fill="#EAEBED" transform="translate(213,372)"/>
</svg>
